<?xml version="1.0" encoding="UTF-8" standalone="no"?>
<!-- Created with Inkscape (http://www.inkscape.org/) -->

<svg
   version="1.1"
   id="svg1"
   width="716.5733"
   height="89"
   viewBox="0 0 716.5733 89"
   sodipodi:docname="csi-logo.svg"
   inkscape:version="1.2.2 (732a01da63, 2022-12-09)"
   xmlns:inkscape="http://www.inkscape.org/namespaces/inkscape"
   xmlns:sodipodi="http://sodipodi.sourceforge.net/DTD/sodipodi-0.dtd"
   xmlns="http://www.w3.org/2000/svg"
   xmlns:svg="http://www.w3.org/2000/svg">
  <defs
     id="defs1" />
  <sodipodi:namedview
     id="namedview1"
     pagecolor="#ffffff"
     bordercolor="#000000"
     borderopacity="0.25"
     inkscape:showpageshadow="2"
     inkscape:pageopacity="0.0"
     inkscape:pagecheckerboard="0"
     inkscape:deskcolor="#d1d1d1"
     showgrid="false"
     inkscape:zoom="2.2161026"
     inkscape:cx="316.09547"
     inkscape:cy="44.898642"
     inkscape:window-width="3840"
     inkscape:window-height="2071"
     inkscape:window-x="-9"
     inkscape:window-y="-9"
     inkscape:window-maximized="1"
     inkscape:current-layer="g1">
    <inkscape:page
       x="0"
       y="0"
       inkscape:label="1"
       id="page1"
       width="716.5733"
       height="89"
       margin="0"
       bleed="0" />
  </sodipodi:namedview>
  <g
     id="g1"
     inkscape:groupmode="layer"
     inkscape:label="1">
    <path
       id="path2"
       d="m 156.232,49.109334 v 3.554667 c 0,2.724 -0.516,4.5808 -1.53734,5.5652 -1.028,0.9844 -2.97866,1.473866 -5.85333,1.473866 h -17.79027 c -2.8984,0 -4.85213,-0.489466 -5.8688,-1.473866 -1.014,-0.9844 -1.5208,-2.8412 -1.5208,-5.5652 v -15.7952 c 0,-2.7 0.5068,-4.547466 1.5208,-5.5412 1.01667,-0.994266 2.9704,-1.492133 5.8688,-1.492133 h 17.79027 c 2.87467,0 4.82533,0.497867 5.85333,1.492133 1.02134,0.993734 1.53734,2.8412 1.53734,5.5412 v 2.842667 l -6.93867,1.109867 v -5.688 h -18.6928 v 18.981199 h 18.6928 v -6.455733 l 6.93867,1.450533 v 0"
       style="fill:#ffffff;fill-opacity:1;fill-rule:nonzero;stroke:none;stroke-width:0.133333" />
    <path
       id="path3"
       d="m 65.080665,45.492134 c 0,5.440134 -1.028533,9.270934 -3.070267,11.237067 -2.053066,1.971333 -5.951999,2.947866 -11.697866,2.947866 H 14.7672 c -5.7906402,0 -9.6968935,-0.976533 -11.7270934,-2.947866 C 1.0114586,54.763068 0,51.052134 0,45.614534 V 14.050002 C 0,8.6530687 1.0114586,4.9609354 3.0401066,2.9770688 5.0703065,0.98693553 8.9765598,-0.00573111 14.7672,-0.00573111 h 35.545332 c 5.745867,0 9.6448,0.99266664 11.697866,2.98279991 2.041734,1.9838666 3.070267,5.6759999 3.070267,11.0729332 v 2.468266 L 51.216132,18.734402 V 10.583869 H 13.864533 v 37.926532 h 37.351599 v -3.018267 h 13.864533"
       style="fill:#ffffff;fill-opacity:1;fill-rule:nonzero;stroke:none;stroke-width:0.133333" />
    <path
       id="path4"
       d="M 192.98666,59.703067 V 49.395868 h -18.596 v 10.307199 h -5.97333 V 35.231201 h 5.97333 v 9.346933 h 18.596 v -9.346933 h 5.976 v 24.471866 h -5.976 v 0"
       style="fill:#ffffff;fill-opacity:1;fill-rule:nonzero;stroke:none;stroke-width:0.133333" />
    <path
       id="path5"
       d="m 223.23733,39.669335 -5.504,10.210933 h 11.20666 z m 11.208,20.033732 -3.08,-5.393199 h -16.17334 l -3.07733,5.393199 h -5.95867 l 14.512,-24.471866 h 5.73067 l 14.73867,24.471866 h -6.692 v 0"
       style="fill:#ffffff;fill-opacity:1;fill-rule:nonzero;stroke:none;stroke-width:0.133333" />
    <path
       id="path6"
       d="M 273.38933,59.703067 252.65999,43.202134 v 16.500933 h -5.39733 V 35.231201 h 4.09867 l 20.76266,16.255733 V 35.231201 h 5.39734 v 24.471866 h -4.132 v 0"
       style="fill:#ffffff;fill-opacity:1;fill-rule:nonzero;stroke:none;stroke-width:0.133333" />
    <path
       id="path7"
       d="m 311.29199,41.430268 c -1.39066,-1.240667 -3.52666,-1.864133 -6.40133,-1.864133 h -10.492 v 15.613599 h 7.672 c 4.18933,0 7.124,-0.619866 8.79867,-1.849066 1.67466,-1.229067 2.51066,-3.3072 2.51066,-6.229067 0,-2.541733 -0.69466,-4.4292 -2.088,-5.671333 z m 4.22534,15.192133 c -2.68934,2.059866 -6.748,3.080666 -12.176,3.080666 H 288.42399 V 35.231201 h 16.41067 c 4.73333,0 8.37067,1.049467 10.908,3.149467 2.536,2.1032 3.80533,5.104266 3.80533,9.002133 0,4.109333 -1.34533,7.190133 -4.03066,9.2396 v 0"
       style="fill:#ffffff;fill-opacity:1;fill-rule:nonzero;stroke:none;stroke-width:0.133333" />
    <path
       id="path8"
       d="M 328.53866,59.703067 V 35.231201 h 5.97466 v 19.948533 h 19.176 v 4.523333 h -25.15066 v 0"
       style="fill:#ffffff;fill-opacity:1;fill-rule:nonzero;stroke:none;stroke-width:0.133333" />
    <path
       id="path9"
       d="m 386.93466,55.179734 v 4.523333 H 360.43732 V 35.231201 h 26.20934 v 4.334934 h -20.232 v 5.301066 h 11.75733 v 4.242133 h -11.75733 v 6.0704 h 20.52 v 0"
       style="fill:#ffffff;fill-opacity:1;fill-rule:nonzero;stroke:none;stroke-width:0.133333" />
    <path
       id="path10"
       d="m 417.75066,41.437468 c 0,-0.709867 -0.196,-1.216667 -0.57734,-1.516133 -0.38933,-0.299467 -1.09866,-0.450534 -2.12666,-0.450534 h -13.58267 v 6.745333 h 13.58267 c 1.028,0 1.73733,-0.151066 2.12666,-0.445333 0.38134,-0.302 0.57734,-0.8072 0.57734,-1.522933 z m -0.16934,9.0208 h -3.35733 l 11.656,9.244799 h -8.556 l -10.24533,-9.244799 h -5.61467 v 9.244799 h -5.87733 V 35.231201 h 21.99466 c 2.01867,0 3.48667,0.375067 4.396,1.122934 0.90534,0.748 1.36267,1.966133 1.36267,3.6516 v 5.733866 c 0,1.6692 -0.45733,2.8724 -1.36267,3.6068 -0.90933,0.7396 -2.37733,1.111867 -4.396,1.111867 v 0"
       style="fill:#ffffff;fill-opacity:1;fill-rule:nonzero;stroke:none;stroke-width:0.133333" />
    <path
       id="path11"
       d="m 482.55999,41.496401 c 2.92933,0 4.90666,0.495734 5.94133,1.493733 1.028,0.996267 1.544,2.851067 1.544,5.554134 v 4.119733 c 0,2.705733 -0.516,4.557333 -1.544,5.546933 -1.03467,0.997333 -3.012,1.492133 -5.94133,1.492133 h -18.36133 c -2.936,0 -4.91867,-0.4948 -5.948,-1.492133 -1.03467,-0.9896 -1.55067,-2.8412 -1.55067,-5.546933 v -0.825467 l 6.168,-1.2864 v 3.5624 h 21.00933 v -6.838533 h -18.53066 c -2.892,0 -4.856,-0.502533 -5.86667,-1.5 -1.01467,-0.9948 -1.52267,-2.859333 -1.52267,-5.5776 v -3.333333 c 0,-2.6984 0.508,-4.545333 1.52267,-5.537467 1.01067,-0.9964 2.97467,-1.492133 5.86667,-1.492133 h 16.88133 c 2.81733,0 4.75466,0.4776 5.828,1.435333 1.06666,0.9552 1.59866,2.6516 1.59866,5.088534 v 0.617733 l -6.16666,1.433867 v -3.3724 h -19.46 v 6.457866 h 18.532 v 0"
       style="fill:#ffffff;fill-opacity:1;fill-rule:nonzero;stroke:none;stroke-width:0.133333" />
    <path
       id="path12"
       d="m 517.45332,48.601601 v 11.101466 h -5.97333 V 48.713601 l -13.39867,-13.4824 h 8.07333 l 8.752,9.128667 8.83867,-9.128667 h 7.00667 l -13.29867,13.3704 v 0"
       style="fill:#ffffff;fill-opacity:1;fill-rule:nonzero;stroke:none;stroke-width:0.133333" />
    <path
       id="path13"
       d="m 558.24265,44.773468 c 2.52134,0 4.216,0.395866 5.08667,1.192666 0.87333,0.794267 1.30533,2.307334 1.30533,4.536534 v 3.416666 c 0,2.242133 -0.444,3.7656 -1.336,4.575467 -0.88933,0.807333 -2.57066,1.208266 -5.056,1.208266 h -15.80933 c -2.54,0 -4.26,-0.400933 -5.16267,-1.208266 -0.89733,-0.809867 -1.34933,-2.333334 -1.34933,-4.575467 v -0.700533 l 5.30133,-1.031333 v 2.992266 h 18.01867 v -5.690133 h -15.824 c -2.51467,0 -4.21467,-0.406267 -5.10667,-1.216133 -0.884,-0.8152 -1.328,-2.3256 -1.328,-4.535467 v -2.748933 c 0,-2.2 0.444,-3.7104 1.328,-4.528667 0.892,-0.8208 2.592,-1.2292 5.10667,-1.2292 h 14.46133 c 2.47734,0 4.172,0.389067 5.09334,1.166667 0.916,0.781333 1.37466,2.1584 1.37466,4.128133 v 0.6084 l -5.2,1.131734 v -2.7 h -16.77066 v 5.207333 h 15.86666 v 0"
       style="fill:#ffffff;fill-opacity:1;fill-rule:nonzero;stroke:none;stroke-width:0.133333" />
    <path
       id="path14"
       d="m 589.48399,39.566135 v 20.136932 h -5.97867 V 39.566135 h -11.756 v -4.334934 h 29.58533 v 4.334934 h -11.85066 v 0"
       style="fill:#ffffff;fill-opacity:1;fill-rule:nonzero;stroke:none;stroke-width:0.133333" />
    <path
       id="path15"
       d="m 635.53065,55.179734 v 4.523333 h -26.5 V 35.231201 h 26.212 v 4.334934 h -20.23333 v 5.301066 h 11.75733 v 4.242133 h -11.75733 v 6.0704 h 20.52133 v 0"
       style="fill:#ffffff;fill-opacity:1;fill-rule:nonzero;stroke:none;stroke-width:0.133333" />
    <path
       id="path16"
       d="M 672.12398,59.703067 V 42.862001 l -10.90933,13.906266 h -1.16133 L 648.99998,43.258268 v 16.444799 h -4.81866 V 35.231201 h 4.81866 l 11.95734,14.524 11.87466,-14.524 h 4.788 v 24.471866 h -5.496 v 0"
       style="fill:#ffffff;fill-opacity:1;fill-rule:nonzero;stroke:none;stroke-width:0.133333" />
    <path
       id="path17"
       d="m 710.17865,44.773468 c 2.52,0 4.216,0.395866 5.08667,1.192666 0.872,0.794267 1.30533,2.307334 1.30533,4.536534 v 3.416666 c 0,2.242133 -0.44533,3.7656 -1.336,4.575467 -0.892,0.807333 -2.57333,1.208266 -5.056,1.208266 h -15.80933 c -2.54134,0 -4.26,-0.400933 -5.16534,-1.208266 -0.896,-0.809867 -1.34533,-2.333334 -1.34533,-4.575467 v -0.700533 l 5.29867,-1.031333 v 2.992266 h 18.01733 v -5.690133 h -15.82 c -2.516,0 -4.216,-0.406267 -5.10667,-1.216133 -0.88533,-0.8152 -1.33066,-2.3256 -1.33066,-4.535467 v -2.748933 c 0,-2.2 0.44533,-3.7104 1.33066,-4.528667 0.89067,-0.8208 2.59067,-1.2292 5.10667,-1.2292 h 14.45867 c 2.47866,0 4.172,0.389067 5.09466,1.166667 0.916,0.781333 1.37334,2.1584 1.37334,4.128133 v 0.6084 l -5.2,1.131734 v -2.7 h -16.76934 v 5.207333 h 15.86667 v 0"
       style="fill:#ffffff;fill-opacity:1;fill-rule:nonzero;stroke:none;stroke-width:0.133333" />
    <path
       id="path18"
       d="m 86.177065,41.784401 13.683333,-3.195866 v -1.376 c 0,-5.4204 -1.185867,-9.1932 -3.559334,-11.319333 -2.374,-2.125467 -6.686533,-3.1896 -12.942666,-3.1896 H 45.761999 c -6.441733,0 -10.790667,1.106266 -13.0484,3.317733 -2.259466,2.207867 -3.389066,6.3136 -3.389066,12.317733 v 7.351066 c 0,6.0468 1.1296,10.187467 3.389066,12.406267 2.257733,2.236933 6.606667,3.346266 13.0484,3.346266 H 86.947864 V 76.47396 H 40.311466 v -7.710893 l -13.685467,2.7812 v 1.783867 c 0,6.018226 1.1412,10.140613 3.419867,12.348946 C 32.324533,87.895833 36.705732,89 43.192666,89 h 40.916665 c 6.4672,0 10.8376,-1.104167 13.109467,-3.32292 2.2744,-2.208333 3.411462,-6.33072 3.411462,-12.348946 v -9.049467 c 0,-6.041733 -1.137062,-10.182266 -3.411462,-12.408933 -2.271867,-2.229066 -6.642267,-3.338533 -13.109467,-3.338533 H 42.816132 V 34.268268 h 43.360933 v 7.516133 0"
       style="fill:#3b5eb4;fill-opacity:1;fill-rule:nonzero;stroke:none;stroke-width:0.133333" />
    <path
       id="path19"
       d="m 51.216132,48.539068 v -17.8708 l 13.864533,2.894267 v 0 14.976533 H 51.216132"
       style="fill:#ffffff;fill-opacity:1;fill-rule:nonzero;stroke:none;stroke-width:0.133333" />
  </g>
</svg>
